<?xml version="1.0" encoding="utf-8"?>
<!-- Generator: Adobe Illustrator 21.0.0, SVG Export Plug-In . SVG Version: 6.00 Build 0)  -->
<svg version="1.1" id="Calque_1" xmlns="http://www.w3.org/2000/svg" xmlns:xlink="http://www.w3.org/1999/xlink" x="0px" y="0px"
	 viewBox="0 0 20 20" style="enable-background:new 0 0 20 20;" xml:space="preserve" width="25px">
<style type="text/css">
	.st0{fill:#29ABE2;}
	.st1{fill:#666666;}
</style>
<g>
	<path class="st0" d="M10,19.8c-5.4,0-9.8-4.4-9.8-9.8S4.6,0.2,10,0.2s9.8,4.4,9.8,9.8S15.4,19.8,10,19.8z"/>
	<path class="st1" d="M10,0.5c5.2,0,9.5,4.3,9.5,9.5s-4.3,9.5-9.5,9.5S0.5,15.2,0.5,10S4.8,0.5,10,0.5 M10,0C4.5,0,0,4.5,0,10
		s4.5,10,10,10s10-4.5,10-10S15.5,0,10,0L10,0z"/>
</g>
</svg>
