<svg id="Calque_1" width="75px" data-name="Calque 1" xmlns="http://www.w3.org/2000/svg" viewBox="0 0 49.64 75.04"><defs><style>.cls-1{fill:#93c254;}.cls-2{fill:#fff;}</style></defs><title>ico_ram_v</title><path class="cls-1" d="M24.82 0A24.85 24.85 0 0 0 0 24.82c0 5.51 3.52 14.5 10.76 27.48 5.12 9.18 10.16 16.83 10.37 17.15L24.82 75l3.69-5.59c.21-.32 5.25-8 10.37-17.15 7.24-13 10.76-22 10.76-27.48A24.85 24.85 0 0 0 24.82 0zm0 37.52"/><path class="cls-2" d="M38.74 15.52v-.05L24.82 10l-13.9 5.53V33l14 5.47L38.82 33V15.51zM24.82 11.1l4.73 1.69-12.88 5-4.36-1.72zm-.5 26.14l-5.22-2.11-2.62-1-4.66-1.8V17l4.56 1.8v3.84l.44-.14.28.38.38-.09.34.39.32-.11.52.52v-3.92l.41.16 5.21 2.05v15.36zm.5-16.24l-5.1-2 12.56-5.09L37.47 16zm13 11.33l-12.5 4.91V21.89L37.82 17v15.33zm0 0"/></svg>
