<?xml version="1.0" encoding="utf-8"?>
<!-- Generator: Adobe Illustrator 21.0.0, SVG Export Plug-In . SVG Version: 6.00 Build 0)  -->
<svg version="1.1" baseProfile="tiny" id="Calque_1"
	 xmlns="http://www.w3.org/2000/svg" xmlns:xlink="http://www.w3.org/1999/xlink" x="0px" y="0px" viewBox="0 0 75 75"
	 overflow="inherit" xml:space="preserve">
<title>ico_liv_v</title>
<path fill="#3498DB" d="M37.5,0C23.8,0,12.7,11.1,12.7,24.8c0,5.5,3.5,14.5,10.8,27.5c5.1,9.2,10.1,16.8,10.4,17.1l3.7,5.6l3.7-5.6
	c0.2-0.3,5.2-8,10.4-17.1c7.2-13,10.8-22,10.8-27.5C62.3,11.1,51.2,0,37.5,0z"/>
<g>
	<path fill="#9ED9F8" d="M37.5,6.6C46.6,6.6,54,14,54,23.1s-7.4,16.5-16.5,16.5S21,32.3,21,23.1S28.4,6.6,37.5,6.6L37.5,6.6z"/>
	<path fill="#36495E" d="M37.5,11.1c6.7,0,12,5.4,12,12s-5.4,12-12,12s-12-5.4-12-12S30.8,11.1,37.5,11.1L37.5,11.1z"/>
	<path fill="#EDEFF4" d="M37.5,13.1c5.6,0,10.1,4.5,10.1,10.1s-4.5,10.1-10.1,10.1s-10.1-4.5-10.1-10.1S31.9,13.1,37.5,13.1
		L37.5,13.1z"/>
	<polygon fill="#ED6953" points="39.4,25.1 41.7,19 35.6,21.2 39.4,25.1 	"/>
	<polygon fill="#66C1ED" points="35.6,21.2 33.3,27.3 39.4,25.1 35.6,21.2 	"/>
	<path fill="#FFFFFF" d="M37.5,21.9c0.7,0,1.2,0.6,1.2,1.2s-0.6,1.2-1.2,1.2s-1.2-0.6-1.2-1.2S36.8,21.9,37.5,21.9L37.5,21.9z"/>
	<path fill="#B7BBC1" d="M46.1,22.4c0.4,0,0.7,0.3,0.7,0.7s-0.3,0.7-0.7,0.7c-0.4,0-0.7-0.3-0.7-0.7S45.6,22.4,46.1,22.4L46.1,22.4z
		"/>
	<path fill="#B7BBC1" d="M28.9,22.4c0.4,0,0.7,0.3,0.7,0.7s-0.3,0.7-0.7,0.7c-0.4,0-0.7-0.3-0.7-0.7S28.5,22.4,28.9,22.4L28.9,22.4z
		"/>
	<path fill="#B7BBC1" d="M37.5,31c0.4,0,0.7,0.3,0.7,0.7s-0.3,0.7-0.7,0.7s-0.7-0.3-0.7-0.7S37.1,31,37.5,31L37.5,31z"/>
	<path fill="#B7BBC1" d="M37.5,13.8c0.4,0,0.7,0.3,0.7,0.7c0,0.4-0.3,0.7-0.7,0.7s-0.7-0.3-0.7-0.7C36.8,14.2,37.1,13.8,37.5,13.8
		L37.5,13.8z"/>
	<path fill="#B7BBC1" d="M43.6,28.5c0.4,0,0.7,0.3,0.7,0.7c0,0.4-0.3,0.7-0.7,0.7c-0.4,0-0.7-0.3-0.7-0.7
		C42.8,28.8,43.1,28.5,43.6,28.5L43.6,28.5z"/>
	<path fill="#B7BBC1" d="M31.4,16.4c0.4,0,0.7,0.3,0.7,0.7s-0.3,0.7-0.7,0.7c-0.4,0-0.7-0.3-0.7-0.7S31,16.4,31.4,16.4L31.4,16.4z"
		/>
	<path fill="#B7BBC1" d="M31.4,28.5c0.4,0,0.7,0.3,0.7,0.7c0,0.4-0.3,0.7-0.7,0.7c-0.4,0-0.7-0.3-0.7-0.7
		C30.7,28.8,31,28.5,31.4,28.5L31.4,28.5z"/>
	<path fill="#B7BBC1" d="M43.6,16.4c0.4,0,0.7,0.3,0.7,0.7s-0.3,0.7-0.7,0.7c-0.4,0-0.7-0.3-0.7-0.7S43.1,16.4,43.6,16.4L43.6,16.4z
		"/>
</g>
</svg>
