<svg id="Calque_1" data-name="Calque 1" width="75px" xmlns="http://www.w3.org/2000/svg" viewBox="0 0 49.41 74.69"><defs><style>.cls-1{fill:none;}.cls-2{fill:#d45453;}.cls-3{clip-path:url(#clip-path);}.cls-4{fill:#fff;}</style><clipPath id="clip-path" transform="translate(-.3 -.16)"><path class="cls-1" d="M7 8.6h35.99v29.43H7z"/></clipPath></defs><title>ico_liv_a</title><path class="cls-2" d="M24.7 0A24.73 24.73 0 0 0 0 24.7c0 5.49 3.5 14.43 10.7 27.35 5.1 9.13 10.12 16.79 10.33 17.07l3.67 5.56 3.67-5.57c.21-.27 5.23-7.93 10.33-17.06 7.2-12.92 10.71-21.86 10.71-27.35A24.73 24.73 0 0 0 24.7 0zm0 37.34"/><path class="cls-3 cls-4" d="M42.7 21.77l-3.58-7.75-13.7-5.58-14.84 5.64-3.88 5.63 3.83-.34V32l14.35 5.68L39.12 32v-8.7zm-17.26-2.31V9.55l12.35 5zm-1.12 16.88l-12.76-5V15.56l12.76 5v15.78zm13.79-5l-12.76 5V20.6l2.8 7.42 10-4.28v7.56zm0 0"/></svg>
