<?xml version="1.0" encoding="utf-8"?>
<!-- Generator: Adobe Illustrator 20.0.0, SVG Export Plug-In . SVG Version: 6.00 Build 0)  -->
<svg version="1.1" id="Calque_1" xmlns="http://www.w3.org/2000/svg" xmlns:xlink="http://www.w3.org/1999/xlink" x="0px" y="0px"
	 width="45px" viewBox="0 0 75 106.2" style="enable-background:new 0 0 75 106.2;" xml:space="preserve">
<style type="text/css">
	.st0{display:none;}
	.st1{display:inline;fill:#93C254;}
	.st2{display:inline;}
	.st3{clip-path:url(#SVGID_2_);fill:#FFFFFF;}
	.st4{fill:#D0DFE9;}
	.st5{fill:#FFFFFF;}
</style>
<g class="st0">
	<path class="st1" d="M27.1,31.2C13.4,31.2,2.3,42.3,2.3,56c0,5.5,3.5,14.5,10.8,27.5c5.1,9.2,10.2,16.8,10.4,17.1l3.7,5.6l3.7-5.6
		c0.2-0.3,5.2-8,10.4-17.1c7.2-13,10.8-22,10.8-27.5C51.9,42.3,40.8,31.2,27.1,31.2z"/>
	<g class="st2">
		<g>
			<g>
				<defs>
					<rect id="SVGID_1_" x="9" y="39.7" width="36.1" height="29.5"/>
				</defs>
				<clipPath id="SVGID_2_">
					<use xlink:href="#SVGID_1_"  style="overflow:visible;"/>
				</clipPath>
				<path class="st3" d="M45.2,53.1l-3.6-7.8l-13.8-5.6l-14.9,5.7L9,51l3.8-0.3v12.7L27.3,69l14.3-5.7v-8.7L45.2,53.1z M27.8,50.8
					v-9.9L40.2,46L27.8,50.8z M26.7,67.7l-12.8-5.1V46.8l12.8,5.1V67.7z M40.6,62.6l-12.8,5.1V51.9l2.8,7.5l10-4.3
					C40.6,55.1,40.6,62.6,40.6,62.6z"/>
			</g>
		</g>
	</g>
</g>
<path class="st4" d="M37.5,0C18.1,0,2.3,15.8,2.3,35.1c0,7.8,5,20.5,15.2,38.9c7.2,13,14.4,23.8,14.7,24.3l5.2,7.9l5.2-7.9
	C43,97.8,50.1,87,57.4,74c10.2-18.4,15.2-31.1,15.2-38.9C72.6,15.8,56.9,0,37.5,0z"/>
<g>
	<path class="st5" d="M61.3,30.1c-1.6-1.7-3.9-2.7-6.4-2.7h-6.6v-3.7c0-0.7-0.5-1.2-1.2-1.2H17c-0.7,0-1.2,0.5-1.2,1.2v26.6
		c0,0.7,0.5,1.2,1.2,1.2h4.8c0.4,2.2,2.3,3.9,4.7,3.9s4.3-1.7,4.7-3.9h18.5c0.4,2.2,2.3,3.9,4.7,3.9s4.3-1.7,4.7-3.9h3.6
		c0.7,0,1.2-0.5,1.2-1.2V37.8C63.9,34.6,63,31.9,61.3,30.1L61.3,30.1z M18.2,24.9h27.7v24.2H31c-0.7-1.8-2.4-3.2-4.5-3.2
		s-3.8,1.3-4.5,3.2h-3.8V24.9z M26.5,53.1c-1.3,0-2.3-1.1-2.3-2.3s1.1-2.3,2.3-2.3c1.3,0,2.3,1.1,2.3,2.3S27.8,53.1,26.5,53.1
		L26.5,53.1z M54.4,53.1c-1.3,0-2.3-1.1-2.3-2.3s1.1-2.3,2.3-2.3c1.3,0,2.3,1.1,2.3,2.3S55.7,53.1,54.4,53.1L54.4,53.1z M61.5,49.1
		h-2.6c-0.7-1.8-2.4-3.2-4.5-3.2s-3.8,1.3-4.5,3.2h-1.6V29.8h6.6c4.1,0,6.6,3.1,6.6,8V49.1L61.5,49.1z"/>
</g>
</svg>
