<?xml version="1.0" encoding="iso-8859-1"?>
<!-- Generator: Adobe Illustrator 21.0.0, SVG Export Plug-In . SVG Version: 6.00 Build 0)  -->
<svg version="1.1" id="Calque_1" xmlns="http://www.w3.org/2000/svg" xmlns:xlink="http://www.w3.org/1999/xlink" x="0px" y="0px"
	 viewBox="0 0 1210 1210" enable-background="new 0 0 1210 1210" xml:space="preserve">
<g>
	<path fill="#2897D5" d="M295.2,1043.8c-19.4-12.3-39.6-23.2-59.5-34.8c-37.1-21.6-74.6-42.7-111.5-64.6
		C88.8,923.5,70.4,892,68.3,851c-1.2-2.5-1.4-5.1-1.4-7.8c0-74.1-0.4-148.2,0.3-222.3c0.2-21.4,0.2-42.9,0.9-64.4
		c0.1-2.3,0.2-4.7-0.5-6.9c-0.7-3.1-0.6-6.3-0.5-9.4c1.3-62.5,0.5-125.1,1.2-187.6c0.3-24.2,9.6-45.7,24.7-64.6
		c7.9-9.8,17.2-18,28.1-24.4c19.4-10.6,38.4-22,57.6-32.9c45-25.5,89.8-51.5,134.7-77.1c21.2-12.1,42.6-24.1,63.6-36.5
		c42.1-24.2,84.2-48.5,126.4-72.5c14.3-8.1,28.6-16.3,42.9-24.5c12.9-7.5,26.2-13.6,41.2-15.1c13,0,26,0,39,0
		C629.8,7,633.6,7,637.2,8c8.4,2.5,16.3,6.1,24.2,9.9c3.8,0.4,6.7,2.8,9.8,4.6c50.7,29.4,101.5,58.6,152.3,88
		c27.1,15.7,54.4,31.1,81.2,47.1c2.2,1.3,3.9,3.1,6.1,4.3c22,12.8,43.9,25.7,66,38.5c37,21.4,74.3,42.4,111,64.3
		c35.4,21.2,53.7,52.9,55.2,94.3c1,2.5,1.2,5.1,1.2,7.8c0,87.4,0,174.8,0,262.2c0,6.3-0.9,12.6-1.5,18.8
		c-0.1,39.3-0.2,78.6-0.3,117.9c-0.1,25.5-0.4,50.9,0,76.4c0.6,44.7-17,79.5-55,103.6c-6,5.8-13.7,8.8-20.7,12.9
		c-44.9,25.7-89.9,51.5-134.8,77.2c-29.2,16.7-58.4,33.3-87.6,50.2c-3.2,1.8-6.7,3-9.9,4.7c-23.8,13.6-47.7,27.1-71.5,40.7
		c-33.1,18.9-66.1,37.8-99.1,56.8c-37.3,21.4-75,22.4-113.2,2.7c-7.7-2.1-14-7-20.7-10.8c-59.4-34.3-118.8-68.6-178.3-102.9
		c-16.3-9.4-32.6-18.8-48.9-28.3C300,1047.4,297.9,1045.2,295.2,1043.8z"/>
	<path fill="#9C9C9B" d="M30.5,753.9c3-7.3,3.4-15.1,4.9-22.7c9.8-51.4,19.3-102.9,28.9-154.4c1.7-9.1,3.2-18.3,4.8-27.5
		c0.4,22,0.6,43.9-0.2,65.8c-0.4,11.5-0.2,23-0.2,34.5c-0.1,65.4-0.1,130.9-0.2,196.3c0,1.7-0.1,3.3-0.2,5
		c-20.7-17.8-32.5-40.6-36.8-67.4c-0.2-1,0-2-1-2.6c0-6.3,0-12.7,0-19c0.8-2,0.8-4,0-6C30.5,755.3,30.5,754.6,30.5,753.9z"/>
	<path fill="#B8B8B7" d="M30.5,755.9c1.6,2,1.4,4,0,6C30.5,759.9,30.5,757.9,30.5,755.9z"/>
	<path fill="#9C9C9B" d="M295.2,1043.8c8.5,3.5,16,8.7,23.9,13.2c50.3,28.9,100.5,58,150.7,87c26.6,15.4,53.3,30.8,79.9,46.1
		c0.3,0.2,0.4,0.5,0.7,0.7c-14.7,5.7-30,6.9-45.5,5.5c-28.5-2.5-51.2-16.3-72.3-34.8c-34.5-30.2-69.9-59.5-104.7-89.4
		C316.9,1062.9,305.4,1054.1,295.2,1043.8z"/>
	<path fill="#9C9C9B" d="M834.3,1090.7c12.5-7.3,24.9-14.7,37.4-21.8c44.8-25.7,89.7-51.4,134.5-77.1c26.2-15,52.5-30.1,78.8-45.1
		c0.7-0.4,1.5-0.6,2.3-0.9c-8.9,38.5-31.5,65.8-68.2,79.9c-38,14.6-76.7,27.4-115.1,41c-21.5,7.6-42.9,15.2-64.4,22.7
		C837.8,1090,836,1090.3,834.3,1090.7z"/>
	<path fill="#9C9C9B" d="M910.8,162c-12.3-5.8-23.8-13.3-35.5-20c-41.8-24-83.5-48.2-125.2-72.3c-28.3-16.4-56.7-32.7-85-49.1
		c-1.3-0.7-2.4-1.7-3.6-2.6c7-3.4,14.6-4.3,22.2-5c34.6-3.3,63.7,8.4,89.7,31c37,32.3,74.8,63.7,112.1,95.7
		C893.9,147,902.9,153.8,910.8,162z"/>
	<path fill="#9C9C9B" d="M1142.6,647.9c0-35.3-0.1-70.6-0.1-106c0-59.1,0.1-118.3,0.1-177.4c0-1.8,0.2-3.6,0.3-5.5
		c25.9,24.1,38.2,54,36.3,89.2c-0.9,16.6-5.3,32.7-8.3,49c-8.1,44.2-16.3,88.4-24.6,132.7C1145.3,636,1143.9,641.9,1142.6,647.9z"/>
	<path fill="#9C9C9B" d="M140.7,620.8c0-66.7-0.4-133.3,0.3-200c0.2-16.4-1.3-32.9,2.4-49.2c6.2-27.5,21.2-48.7,45.5-62.7
		c55.5-32.1,111.2-63.7,166.8-95.6c51.1-29.3,102.2-58.6,153.3-87.9c16.6-9.5,33.2-19,49.9-28.5c14.8-8.4,30.8-12.6,47.7-12.7
		c20.3-0.1,38.5,7.1,56,17.3c50.6,29.6,101.4,58.7,152.1,88.1c47.7,27.6,95.4,55.2,143,82.8c21.9,12.7,44,25,65.7,38.1
		c28.4,17.1,44.6,42.2,47.3,75.5c1.6,20.3,0.7,40.6,0.3,60.9c-0.5,22-0.2,44-0.2,66c-0.1,100.5,0,201-0.2,301.5
		c-0.1,39.5-17.9,68.9-52.3,88.5c-51.6,29.4-103.1,59.1-154.7,88.6c-44.8,25.6-89.6,51.2-134.4,76.9c-24.6,14.1-49.2,28-73.6,42.2
		c-16.2,9.4-33.6,14.6-52.3,14.3c-19.2-0.3-36.6-7-53.1-16.7c-45.5-26.7-91.3-52.9-137-79.3c-46-26.6-91.9-53.1-137.9-79.7
		c-29-16.7-58.1-33.2-86.9-50.3c-26.1-15.5-41.9-38.3-46.8-68.5c-1.8-11.3-0.9-22.6-1-33.9c-0.1-58.5-0.1-117-0.1-175.5
		C140.6,620.8,140.6,620.8,140.7,620.8z"/>
	<path fill="#9C9C9B" d="M122.6,263.9c9.4-41.2,34.5-68.6,74.1-82.7c58.3-20.8,116.7-41.2,175.1-61.7c1.9-0.7,3.8-1,5.8-1.5
		c-16.5,9.6-33,19.3-49.6,28.8c-45.2,25.9-90.3,51.8-135.5,77.6C169.2,237.5,145.9,250.7,122.6,263.9z"/>
	<path fill="#FEFEFE" d="M1060.3,479.4c0,27,0.3,54-0.1,81c-1.1,84.1-0.5,168.3-0.6,252.4c-0.1,39.6-17.4,68.7-51.6,88.3
		c-91.8,52.5-183.5,105.1-275.3,157.6c-27.5,15.7-54.7,31.7-82.4,47.1c-32.5,18-65.2,17.5-97.4-1c-65.3-37.7-130.6-75.4-195.9-113.2
		c-54.4-31.4-108.9-62.5-163-94.3c-31.5-18.5-47.5-46.7-47.5-83.5c0-118,0.1-236,0.4-354c0.1-18.8,0.6-37.6,0.3-56.5
		c-0.4-40,17.3-69,51.7-88.6c91.8-52.4,183.5-105.1,275.3-157.6c27.5-15.7,54.7-31.8,82.4-47.1c32.7-18.1,65.5-17.2,97.9,1.5
		c69.6,40.2,139.3,80.5,208.9,120.7c50.4,29.2,101.1,58,151.3,87.7c26.6,15.7,41.9,39.7,44.9,70.5c2.5,25.6,0.4,51.3,0.9,76.9
		c0.1,4,0,8,0,12C1060.3,479.4,1060.3,479.4,1060.3,479.4z"/>
	<path fill="#2897D5" d="M602.5,641.9c-25-34-50-68-75-102c-1.3-1.7-2.6-3.4-4-5.1c-1.6-0.3-2.4-1.8-4.1-2.5
		c-0.7,1.8-0.4,3.6-0.4,5.3c0,38.3,0,76.6,0,114.9c0,10.6-0.4,11-10.9,11c-9.7,0-19.3,0-29,0c-2.3,0-4.7,0.2-6.7-1.5
		c-3.9,0.4-5.2-1-5.2-5.3c0.2-65.8,0.2-131.6,0-197.4c0-4.6,1.3-5.5,5.6-5.4c15.7,0.3,31.3,0.2,47,0c3.7-0.1,6,1,8.2,4.1
		c25.6,35.3,51.4,70.5,77.1,105.7c0.9,1.2,1.8,2.4,3.1,4c5.2-7.1,10.2-13.8,15.2-20.7c21.7-29.7,43.4-59.4,65-89.2
		c2.1-2.9,4.3-4,7.8-4c15,0.2,30,0.1,45,0.1c7.1,0,7.1,0,7.4,7c1.7,2,1.4,4.4,1.4,6.7c0,62.3,0,124.6,0,186.8c0,8-1,8.9-8.9,9
		c-10.2,0.1-20.3,0-30.5,0c-2.5,0-5,0.3-7.1-1.5c-4,0.4-5.2-1.1-5.1-5.3c0.1-38.3,0-76.5,0-114.8c-2.3-3.9-0.6-8.1-1.1-11.7
		c-16.9,22.8-34.7,45.8-52,69c-9.6,13-19.3,25.9-29.1,38.7C612,643.6,608.7,644.4,602.5,641.9z"/>
	<path fill="#2897D5" d="M229.6,719.2c-4,0.4-5.1-1.2-5.1-5.4c0.1-84.6,0.2-169.2,0-253.8c0-4.6,1.5-5.4,5.6-5.4
		c33.1,0.2,66.3,0.1,99.4,0.1c30.2,0,58.3,6.9,83,25.2c11.2,8.3,20.3,18.7,28,30.3c1.1,2.5,1.5,5.1,1.5,7.8
		c0,47.3-0.1,94.6,0.1,141.9c0,3.6-1.6,6.4-3.5,9.1c-15.8,22.6-37.3,37.2-63.5,45.1c-14.6,4.4-29.6,6.4-44.8,6.4c-31,0-62,0-92.9,0
		C234.7,720.4,232,720.9,229.6,719.2z"/>
	<path fill="#2897D5" d="M808.5,543.1c5.9,7,14.3,9.4,22.6,11.7c14.1,3.9,28.8,4.6,43.2,7c13,2.2,25.7,5,38,9.8
		c16.1,6.3,29.4,16,38.2,31.2c6.2,9.5,8.4,20.1,8.4,31.4c0,10.6-0.3,21-4.1,31c-7.3,19.6-21.3,32.8-39.9,41.3
		c-17.8,8.1-36.8,11.5-56.3,11.8c-18.3,0.4-36.3-0.9-53.9-6.2c-6.9-2.1-13.6-4.6-19.8-8.2c-1.7-1-3.4-2.1-4.5-3.9
		c-4.6-2.1-5.4-5.8-5.3-10.5c0.3-15,0.1-30,0.1-45c0-3,5.5-7.9,8.3-7.6c1.2,0.1,1.5,1.2,1.9,2c12.2,23.8,33.1,33.3,58.3,36
		c15.3,1.6,30.3,0.3,44.6-5.3c16-6.3,23.7-17.8,23-33.6c-0.2-3.7-1-7.2-3-10.4c-8.8-11.6-21.4-16.5-35-19.5
		c-14.7-3.3-29.7-3.9-44.4-7c-14.9-3.1-29.5-7.1-42.7-14.9c-2.3-1.4-4.5-2.8-5.9-5.2c-4.3-2.6-5.4-6.3-5.3-11.3
		c0.2-27.3,0.2-54.6,0-81.9c0-3.5,1.1-5.9,3.7-8.1c13.4-10.9,28.9-17.1,45.6-20.2c26.3-5,52.3-3.9,77.8,4.7
		c20,6.8,35.5,19.4,46.3,37.6c2,2.6,1.9,4.7-1.2,6.4c-10.2,5.5-20.4,11-30.9,16c-1.2,0.6-2.4,1.1-3.8,0.4l0,0
		c-16.3-18.8-37.4-26.7-61.6-26.3c-11.9,0.2-23.7,2.2-34.4,8.8c-12.2,7.6-16.6,23.6-9.6,35.2C807.7,541.3,807.9,542.3,808.5,543.1z"
		/>
	<path fill="#9C9C9B" d="M472.4,719c-3.9,0.6-5-1-4.9-4.9c0.2-12.7,0.3-25.3,0-38c-0.1-4.2,1.1-5.3,5.3-5.2
		c81.2,0.1,162.3,0.1,243.5,0.1c8.5,0,17,0,25.5,0c8,0.1,6.8-1,7,6.8c1.5,1.8,1.5,4,1.5,6.2c0,9.7,0.1,19.3,0,29
		c-0.1,6.3-1.3,7.4-7.8,7.6c-1.3,0-2.7,0-4,0c-85.4,0-170.9,0-256.3,0C478.8,720.5,475.3,721.2,472.4,719z"/>
	<path fill="#B2B2B2" d="M229.6,719.2c34.5-0.1,69,0,103.5-0.3c15.5-0.1,30.8-2.6,45.5-7.5c23.7-8,43.2-21.9,58-42.1
		c2.8-3.9,4.2-7.7,4.2-12.7c-0.2-46.5-0.1-93-0.1-139.5c0-2.3-0.1-4.7-0.1-7c4.3,4.5,6.1,9.6,6.1,16.1c-0.3,44.1-0.5,88.2,0.1,132.3
		c0.1,9.5-3,16.5-8.7,23.3c-21.5,25.7-49.3,39.2-82.2,43.1c-10.6,1.3-21.2,1.7-31.8,1.7c-29,0-57.9,0-86.9,0
		C229.7,726.8,229.7,726.8,229.6,719.2z"/>
	<path fill="#B2B1B1" d="M472.4,719c38.6,0,77.3-0.1,115.9-0.1c51.5,0,103-0.1,154.4,0.1c4.5,0,6-1,5.9-5.8
		c-0.3-11.8-0.1-23.7,0-35.5c4-0.2,5.3,1.4,5.2,5.6c-0.3,12.3-0.3,24.6,0,36.9c0.1,4.5-1,5.9-5.8,5.9c-26.3-0.2-52.6-0.1-78.9-0.1
		c-63.1,0-126.2,0-189.2,0C472.9,726.1,472.9,726.1,472.4,719z"/>
	<path fill="#B2B1B1" d="M780.5,700c14.4,8.4,29.9,13.6,46.4,15.4c33.5,3.7,66.5,2.7,96.6-15.1c22.1-13.1,33.6-32.8,34.3-58.7
		c0.4-13.5-1.6-26.4-7.2-38.7c6.6,7.3,9.5,16.3,11.3,25.6c3.3,17.1,2.3,33.8-5.4,49.7c-9.3,19.3-25.3,30.9-44.9,37.9
		c-21.1,7.6-42.9,9.7-65.3,8.2c-19.5-1.3-38.2-4.7-55.5-14.2c-2.6-1.4-5-3.3-7.7-4.7C780.8,704.2,780.1,702.4,780.5,700z"/>
	<path fill="#B3B3B3" d="M703.6,662c13.2,0,26.3-0.3,39.5,0c4.4,0.1,5.6-1.1,5.6-5.5c-0.2-63.3-0.1-126.6-0.1-189.9
		c0-1.8,0.1-3.7,0.2-5.5c3.8-0.5,5.1,0.9,5.1,5c-0.1,65.9-0.1,131.9,0,197.8c0,4.2-1.2,5.4-5.3,5.3c-12.6-0.3-25.3-0.1-38-0.1
		C702.5,669,703.8,669.6,703.6,662z"/>
	<path fill="#B2B1B1" d="M602.5,641.9c7.2,1.3,11.4-2.5,15.5-8c25.6-34.5,51.4-68.7,77.2-103c0.8-1,1.7-2,3.2-3.9
		c0,5.6,0,10.2,0,14.9c-9.7,12.6-19.5,25.2-29,37.9c-16.3,21.6-32.5,43.2-48.7,64.9c-4.8,6.4-11.9,6.3-16.5-0.3
		C603.6,643.5,603.1,642.7,602.5,641.9z"/>
	<path fill="#B2B1B1" d="M472.6,662c12.8,0,25.6-0.1,38.4-0.1c6.5,0,6.5,0,6.5-6.3c0-40.8,0-81.6,0-122.3c0-1.8,0-3.6,0-6.3
		c3.1,2.4,4.5,5.1,6,7.8c-1.5,1.7-0.9,3.8-0.9,5.7c0,40.9-0.1,81.9,0.1,122.8c0,4.7-1.3,5.9-5.9,5.8c-12.5-0.3-25-0.1-37.4-0.1
		C471.5,669,472.8,669.6,472.6,662z"/>
	<path fill="#B2B1B2" d="M808.5,543.1c-8.6-8.1-8.1-23.9,1.2-33.7c8-8.4,18.4-11.6,29.4-13.3c17.5-2.8,34.4-0.6,50.4,7.1
		c9.3,4.5,18,10,23.2,19.5c-10.5-9-22.2-15.5-35.9-18.2c-14-2.7-28.1-2.8-41.8,1.2C814.1,511.7,807.1,521.9,808.5,543.1z"/>
	<path fill="#B2B2B2" d="M780.5,579.1c18.4,12.7,39.4,17.7,61.1,20.9c16.4,2.4,33.1,3.3,48.5,10c7.7,3.4,14.9,7.4,18.4,15.7
		c-12.6-10.7-28.1-13.7-43.8-15.8c-24-3.2-48.1-6-69.9-17.8c-4.4-2.4-8.5-5.1-12.3-8.4C781,582.4,780.1,581.1,780.5,579.1z"/>
	<path fill="#B2B2B2" d="M912.7,522.7c11.4-5.8,22.7-11.7,34.2-17.2c3.1-1.5,2.4-3.3,1.7-5.6c0.1,0.1,0.3,0.1,0.4,0.2
		c8.1,9.8,8,10.4-3.1,16.1c-7.4,3.7-14.9,7.2-22.1,11.3c-3.8,2.2-6.5,2.4-8.8-1.7C914.4,524.7,913.5,523.7,912.7,522.7z"/>
	<path fill="#FEFEFE" d="M395.7,532.9c9,11.5,13.4,24.9,15.4,39c2.8,19.2,0.8,37.9-7.4,55.6c-11.5,24.7-31.2,38.6-57.8,42.3
		c-22,3.1-44.2,1-66.4,1.2c-1.7-1.9-1.5-4.3-1.5-6.6c0-49.5,0-98.9,0-148.4c0-7.6,0.9-8.5,8.7-8.5c16.8,0,33.6-0.4,50.5,0.1
		c17.8,0.5,34.7,4.5,49.1,15.8C389.8,526.1,392.5,529.7,395.7,532.9z"/>
	<path fill="#B2B1B1" d="M395.7,532.9c-7.4-6.7-15.1-12.8-24.5-16.8c-10.7-4.5-21.9-6.7-33.4-7c-17.5-0.4-35,0-52.4-0.2
		c-4.5-0.1-5.9,1-5.8,5.7c0.2,52.1,0.1,104.2,0.1,156.3c-3.8,0.8-5.2-0.4-5.2-4.6c0.1-53.3,0.1-106.6,0-159.9c0-3.8,1.1-4.8,4.8-4.8
		c19.8,0.2,39.7-0.5,59.4,0.5c22.8,1.2,41.9,10.7,56.3,28.9C395.3,531.6,395.4,532.3,395.7,532.9z"/>
</g>
</svg>
