<?xml version="1.0" encoding="utf-8"?>
<!-- Generator: Adobe Illustrator 20.0.0, SVG Export Plug-In . SVG Version: 6.00 Build 0)  -->
<svg version="1.1" id="Calque_1" xmlns="http://www.w3.org/2000/svg" xmlns:xlink="http://www.w3.org/1999/xlink" x="0px" y="0px"
	 width="75px" viewBox="0 0 75 75" style="enable-background:new 0 0 75 75;" xml:space="preserve">
<style type="text/css">
	.st0{fill:#3498DB;}
	.st1{clip-path:url(#SVGID_2_);fill:#FFFFFF;}
</style>
<title>ico_liv_v</title>
<path class="st0" d="M37.5,0C23.8,0,12.7,11.1,12.7,24.8c0,5.5,3.5,14.5,10.8,27.5c5.1,9.2,10.1,16.8,10.4,17.1l3.7,5.6l3.7-5.6
	c0.2-0.3,5.2-8,10.4-17.1c7.2-13,10.8-22,10.8-27.5C62.3,11.1,51.2,0,37.5,0z"/>
<g>
	<defs>
		<rect id="SVGID_1_" x="19.4" y="8.5" width="36.1" height="29.5"/>
	</defs>
	<clipPath id="SVGID_2_">
		<use xlink:href="#SVGID_1_"  style="overflow:visible;"/>
	</clipPath>
	<path class="st1" d="M55.6,21.9L52,14.1L38.2,8.5l-14.9,5.7l-3.9,5.7l3.8-0.3v12.7l14.4,5.7L52,32.1v-8.7L55.6,21.9z M38.2,19.5
		V9.6l12.4,5.1L38.2,19.5z M37.1,36.5l-12.8-5V15.6l12.8,5.1V36.5z M51,31.4l-12.8,5.1V20.7l2.8,7.5l10-4.3V31.4L51,31.4z"/>
</g>
</svg>
