<?xml version="1.0" encoding="utf-8"?>
<!-- Generator: Adobe Illustrator 20.0.0, SVG Export Plug-In . SVG Version: 6.00 Build 0)  -->
<svg version="1.1" id="Calque_1" xmlns="http://www.w3.org/2000/svg" xmlns:xlink="http://www.w3.org/1999/xlink" x="0px" y="0px"
	 viewBox="0 0 49.6 75" width="75px" style="enable-background:new 0 0 49.6 75;" xml:space="preserve">
<style type="text/css">
	.st0{fill:#D45453;}
	.st1{fill:#FFFFFF;}
</style>
<title>ico_ram_v</title>
<path class="st0" d="M24.8,0C11.1,0,0,11.1,0,24.8c0,5.5,3.5,14.5,10.8,27.5c5.1,9.2,10.2,16.8,10.4,17.1l3.7,5.6l3.7-5.6
	c0.2-0.3,5.3-8,10.4-17.2c7.2-13,10.8-22,10.8-27.5C49.6,11.1,38.5,0,24.8,0z"/>
<path class="st1" d="M38.7,15.5L38.7,15.5L24.8,10l-13.9,5.5V33l14,5.5L38.8,33L38.7,15.5L38.7,15.5z M24.8,11.1l4.7,1.7l-12.9,5
	l-4.4-1.7L24.8,11.1z M24.3,37.2l-5.2-2.1l-2.6-1l-4.7-1.8V17l4.6,1.8v3.8l0.4-0.1l0.3,0.4l0.4-0.1l0.3,0.4l0.3-0.1l0.5,0.5v-3.9
	l0.4,0.2l5.2,2L24.3,37.2L24.3,37.2z M24.8,21l-5.1-2l12.6-5.1l5.2,2.1L24.8,21z M37.8,32.3l-12.5,4.9V21.9L37.8,17
	C37.8,17,37.8,32.3,37.8,32.3z"/>
</svg>
