<?xml version="1.0" encoding="utf-8"?>
<!-- Generator: Adobe Illustrator 21.0.0, SVG Export Plug-In . SVG Version: 6.00 Build 0)  -->
<svg version="1.1" id="Calque_1" xmlns="http://www.w3.org/2000/svg" xmlns:xlink="http://www.w3.org/1999/xlink" x="0px" y="0px"
	 viewBox="0 0 75 75" style="enable-background:new 0 0 75 75;" xml:space="preserve">
<style type="text/css">
	.st0{fill:#3498DB;}
	.st1{clip-path:url(#SVGID_4_);fill:#FFFFFF;}
	.st2{clip-path:url(#SVGID_5_);fill:#FFFFFF;}
	.st3{clip-path:url(#SVGID_6_);fill:#FFFFFF;}
</style>
<circle class="st0" cx="37.5" cy="37.5" r="37.5"/>
<title>ico_liv_v</title>
<g>
	<g>
		<g>
			<defs>
				<rect id="SVGID_3_" x="14.3" y="39.5" width="21.1" height="17.2"/>
			</defs>
			<clipPath id="SVGID_4_">
				<use xlink:href="#SVGID_3_"  style="overflow:visible;"/>
			</clipPath>
			<path class="st1" d="M35.5,47.3l-2.1-4.6l-8.1-3.3l-8.7,3.3l-2.3,3.3l2.2-0.2v7.4l8.4,3.3l8.4-3.5v-5.1L35.5,47.3z M25.3,45.9
				v-5.8l7.3,3L25.3,45.9z M24.7,55.9l-7.5-2.9v-9.3l7.5,3V55.9z M32.8,52.9l-7.5,3v-9.2L27,51l5.8-2.5V52.9L32.8,52.9z"/>
		</g>
	</g>
	<g>
		<g>
			<defs>
				<rect id="SVGID_1_" x="40.1" y="39.5" width="21.1" height="17.2"/>
			</defs>
			<clipPath id="SVGID_5_">
				<use xlink:href="#SVGID_1_"  style="overflow:visible;"/>
			</clipPath>
			<path class="st2" d="M61.2,47.3l-2.1-4.6l-8.1-3.3l-8.7,3.3l-2.3,3.3l2.2-0.2v7.4l8.4,3.3l8.4-3.5v-5.1L61.2,47.3z M51.1,45.9
				v-5.8l7.3,3L51.1,45.9z M50.4,55.9l-7.5-2.9v-9.3l7.5,3V55.9z M58.5,52.9l-7.5,3v-9.2l1.6,4.4l5.8-2.5V52.9L58.5,52.9z"/>
		</g>
	</g>
	<g>
		<g>
			<defs>
				<rect id="SVGID_2_" x="26.9" y="18.2" width="21.1" height="17.2"/>
			</defs>
			<clipPath id="SVGID_6_">
				<use xlink:href="#SVGID_2_"  style="overflow:visible;"/>
			</clipPath>
			<path class="st3" d="M48.1,26.1L46,21.5l-8.1-3.3l-8.7,3.3l-2.3,3.3l2.2-0.2v7.4l8.4,3.3L46,32V27L48.1,26.1z M37.9,24.7v-5.8
				l7.3,3L37.9,24.7z M37.3,34.6l-7.5-2.9v-9.3l7.5,3V34.6z M45.4,31.6l-7.5,3v-9.2l1.6,4.4l5.8-2.5V31.6L45.4,31.6z"/>
		</g>
	</g>
</g>
</svg>
