<svg id="Calque_1" width="75px" data-name="Calque 1" xmlns="http://www.w3.org/2000/svg" viewBox="0 0 49.62 75"><defs><style>.cls-1{fill:none;}.cls-2{fill:#93c254;}.cls-3{clip-path:url(#clip-path);}.cls-4{fill:#fff;}</style><clipPath id="clip-path" transform="translate(-.19)"><path class="cls-1" d="M6.93 8.48h36.14v29.55H6.93z"/></clipPath></defs><title>ico_liv_v</title><path class="cls-2" d="M24.81 0A24.84 24.84 0 0 0 0 24.81c0 5.51 3.52 14.49 10.76 27.46 5.12 9.17 10.15 16.82 10.37 17.14L24.81 75l3.69-5.59c.21-.32 5.25-8 10.37-17.14 7.24-13 10.76-22 10.76-27.46A24.84 24.84 0 0 0 24.81 0zm0 37.5"/><path class="cls-3 cls-4" d="M42.88 21.86l-3.6-7.78-13.75-5.6-14.9 5.66-3.89 5.65 3.85-.34v12.68L25 37.83l14.3-5.7V23.4zm-17.32-2.32V9.6l12.41 5.06zm-1.13 16.95l-12.82-5.05V15.63l12.82 5.06v15.8zm13.84-5.06l-12.81 5.06v-15.8l2.81 7.45 10-4.3v7.6zm0 0"/></svg>
