<?xml version="1.0" encoding="utf-8"?>
<!-- Generator: Adobe Illustrator 21.0.0, SVG Export Plug-In . SVG Version: 6.00 Build 0)  -->
<svg version="1.1" id="Capa_1" xmlns="http://www.w3.org/2000/svg" xmlns:xlink="http://www.w3.org/1999/xlink" x="0px" y="0px"
	 viewBox="0 0 54 54" style="enable-background:new 0 0 54 54;" xml:space="preserve">
<style type="text/css">
	.st0{fill:#3ABCA7;}
	.st1{fill:#FFFFFF;}
</style>
<g>
	<g>
		<path class="st0" d="M45.3,53.3H9.1c-4.7,0-8.6-3.8-8.6-8.6V8.6C0.5,3.8,4.3,0,9.1,0h36.2c4.7,0,8.6,3.8,8.6,8.6v36.2
			C53.8,49.5,50,53.3,45.3,53.3z"/>
		<path class="st1" d="M45.6,14.4H27.2c-0.6,0-1-0.5-1-1c0-0.6,0.5-1,1-1h18.5c0.6,0,1,0.5,1,1C46.7,13.9,46.2,14.4,45.6,14.4z"/>
		<path class="st1" d="M45.6,28.7H27.2c-0.6,0-1-0.5-1-1c0-0.6,0.5-1,1-1h18.5c0.6,0,1,0.5,1,1C46.7,28.3,46.2,28.7,45.6,28.7z"/>
		<path class="st1" d="M45.6,43.1H27.2c-0.6,0-1-0.5-1-1s0.5-1,1-1h18.5c0.6,0,1,0.5,1,1S46.2,43.1,45.6,43.1z"/>
		<path class="st1" d="M12.9,17.4c-0.2,0-0.4-0.1-0.6-0.2l-4.7-3.5c-0.5-0.3-0.5-1-0.2-1.4c0.3-0.5,1-0.5,1.4-0.2l3.9,2.9l6.4-7.5
			c0.4-0.4,1-0.5,1.4-0.1c0.4,0.4,0.5,1,0.1,1.4l-7,8.2C13.5,17.3,13.2,17.4,12.9,17.4z"/>
		<path class="st1" d="M12.9,31.8c-0.2,0-0.4-0.1-0.6-0.2l-4.7-3.5c-0.5-0.3-0.5-1-0.2-1.4c0.3-0.5,1-0.5,1.4-0.2l3.9,2.9l6.4-7.5
			c0.4-0.4,1-0.5,1.4-0.1c0.4,0.4,0.5,1,0.1,1.4l-7,8.2C13.5,31.7,13.2,31.8,12.9,31.8z"/>
		<path class="st1" d="M12.9,47.2c-0.2,0-0.4-0.1-0.6-0.2l-4.7-3.5c-0.5-0.3-0.5-1-0.2-1.4c0.3-0.5,1-0.5,1.4-0.2l3.9,2.9l6.4-7.5
			c0.4-0.4,1-0.5,1.4-0.1c0.4,0.4,0.5,1,0.1,1.4l-7,8.2C13.5,47.1,13.2,47.2,12.9,47.2z"/>
	</g>
</g>
</svg>
