<?xml version="1.0" encoding="utf-8"?>
<!-- Generator: Adobe Illustrator 21.0.0, SVG Export Plug-In . SVG Version: 6.00 Build 0)  -->
<svg version="1.1" id="Calque_1" xmlns="http://www.w3.org/2000/svg" xmlns:xlink="http://www.w3.org/1999/xlink" x="0px" y="0px"
	 viewBox="0 0 75 75" style="enable-background:new 0 0 75 75;" xml:space="preserve">
<style type="text/css">
	.st0{fill:#3498DB;}
	.st1{fill:#FFFFFF;}
</style>
<title>ico_liv_v</title>
<path class="st0" d="M37.5,0C23.8,0,12.7,11.1,12.7,24.8c0,5.5,3.5,14.5,10.8,27.5c5.1,9.2,10.1,16.8,10.4,17.1l3.7,5.6l3.7-5.6
	c0.2-0.3,5.2-8,10.4-17.1c7.2-13,10.8-22,10.8-27.5C62.3,11.1,51.2,0,37.5,0z"/>
<path class="st1" d="M51.5,15L51.5,15L37.6,9.5l-13.9,5.5v17.5l14,5.5l13.9-5.5L51.5,15L51.5,15z M37.6,10.6l4.7,1.7l-12.9,5
	L25,15.6L37.6,10.6z M37.1,36.8l-5.2-2.1l-2.6-1l-4.7-1.8V16.5l4.6,1.8v3.8l0.4-0.1l0.3,0.4l0.4-0.1l0.3,0.4l0.3-0.1l0.5,0.5v-3.9
	l0.4,0.2l5.2,2L37.1,36.8L37.1,36.8z M37.6,20.5l-5.1-2L45,13.4l5.2,2.1L37.6,20.5z M50.6,31.9l-12.5,4.9V21.4l12.5-4.9
	C50.6,16.5,50.6,31.9,50.6,31.9z"/>
</svg>
